<svg xmlns="http://www.w3.org/2000/svg" width="40" height="40" viewBox="0 0 40 40">
  <style>
    .bg { fill: #F3F4F6; }
    .icon { fill: #1F2937; }
    @media (prefers-color-scheme: dark) {
      .bg { fill: #1F2937; }
      .icon { fill: #F9FAFB; }
    }
  </style>
  <circle cx="20" cy="20" r="20" class="bg"/>
  <g transform="translate(8, 8)">
    <path d="M24 12a3 3 0 1 1-6 0 3 3 0 0 1 6 0zm-9 9a3 3 0 1 1-6 0 3 3 0 0 1 6 0zm0-9a3 3 0 1 1-6 0 3 3 0 0 1 6 0zm6-6a3 3 0 1 1 0-6 3 3 0 0 1 0 6zm0-.5a2.5 2.5 0 1 0 0-5 2.5 2.5 0 0 0 0 5zM3 24a3 3 0 1 1 0-6 3 3 0 0 1 0 6zm0-.5a2.5 2.5 0 1 0 0-5 2.5 2.5 0 0 0 0 5zm18 .5a3 3 0 1 1 0-6 3 3 0 0 1 0 6zm0-.5a2.5 2.5 0 1 0 0-5 2.5 2.5 0 0 0 0 5zM6 12a3 3 0 1 1-6 0 3 3 0 0 1 6 0zm9-9a3 3 0 1 1-6 0 3 3 0 0 1 6 0zm-3 2.5a2.5 2.5 0 1 0 0-5 2.5 2.5 0 0 0 0 5zM6 3a3 3 0 1 1-6 0 3 3 0 0 1 6 0zM3 5.5a2.5 2.5 0 1 0 0-5 2.5 2.5 0 0 0 0 5z" class="icon"/>
  </g>
</svg>